<?xml version="1.0" standalone="no"?>
<!DOCTYPE svg PUBLIC "-//W3C//DTD SVG 20010904//EN"
 "http://www.w3.org/TR/2001/REC-SVG-20010904/DTD/svg10.dtd">
<svg version="1.0" xmlns="http://www.w3.org/2000/svg"
 width="512.000000pt" height="512.000000pt" viewBox="0 0 512.000000 512.000000"
 preserveAspectRatio="xMidYMid meet">

<g transform="translate(0.000000,512.000000) scale(0.100000,-0.100000)"
fill="#000000" stroke="none">
<path d="M2315 5109 c-485 -50 -943 -235 -1334 -537 -111 -85 -348 -322 -433
-433 -158 -203 -309 -474 -394 -704 -47 -128 -107 -367 -130 -520 -26 -168
-26 -541 0 -710 23 -151 83 -391 131 -521 85 -231 235 -500 393 -703 81 -105
310 -336 412 -417 207 -163 488 -322 724 -409 130 -48 370 -108 521 -131 148
-22 532 -26 670 -6 482 69 888 240 1265 530 103 80 334 309 416 412 161 204
323 491 409 724 48 130 108 370 131 521 14 90 18 179 18 355 0 271 -13 386
-74 626 -48 190 -93 310 -185 499 -196 403 -500 749 -880 1004 -319 214 -661
345 -1055 406 -126 19 -477 28 -605 14z m450 -299 c785 -72 1480 -553 1825
-1264 106 -217 166 -409 206 -661 25 -154 25 -496 0 -650 -40 -252 -100 -444
-206 -661 -223 -458 -585 -820 -1045 -1045 -216 -105 -408 -165 -660 -205
-154 -25 -496 -25 -650 0 -433 70 -808 240 -1135 514 -498 417 -800 1067 -800
1722 0 655 301 1302 800 1723 464 390 1069 582 1665 527z"/>
<path d="M1288 3589 c-43 -22 -78 -81 -78 -129 0 -50 26 -89 133 -197 l102
-103 -102 -102 c-55 -57 -108 -117 -117 -135 -61 -122 75 -258 197 -197 18 9
78 62 135 117 l102 102 103 -102 c56 -55 116 -108 134 -117 122 -61 258 75
197 197 -9 18 -62 78 -117 135 l-102 102 102 103 c55 56 108 116 117 134 61
122 -75 258 -197 197 -18 -9 -78 -62 -134 -117 l-103 -102 -102 102 c-57 55
-117 108 -135 117 -42 21 -90 20 -135 -5z"/>
<path d="M3088 3589 c-43 -22 -78 -81 -78 -129 0 -50 26 -89 133 -197 l102
-103 -102 -102 c-55 -57 -108 -117 -117 -135 -61 -122 75 -258 197 -197 18 9
78 62 135 117 l102 102 103 -102 c56 -55 116 -108 134 -117 122 -61 258 75
197 197 -9 18 -62 78 -117 135 l-102 102 102 103 c107 108 133 147 133 197 0
50 -35 107 -80 130 -85 43 -127 25 -267 -113 l-103 -102 -102 102 c-57 55
-117 108 -135 117 -42 21 -90 20 -135 -5z"/>
<path d="M1861 2099 c-58 -11 -163 -61 -213 -100 -21 -18 -64 -63 -95 -101
-62 -79 -112 -108 -183 -108 -63 0 -122 30 -176 89 -51 55 -98 76 -150 68
-111 -18 -159 -141 -93 -240 137 -207 434 -277 658 -156 65 35 94 60 176 154
74 84 124 110 202 102 69 -7 113 -35 169 -108 78 -102 169 -163 289 -194 116
-30 257 -12 364 46 65 35 94 60 176 154 74 84 124 110 202 102 69 -7 113 -35
169 -108 25 -33 68 -77 94 -98 203 -161 493 -145 674 37 73 73 100 128 91 183
-14 82 -98 140 -180 125 -28 -6 -52 -22 -94 -66 -62 -66 -109 -90 -174 -90
-60 0 -138 41 -172 90 -147 212 -414 287 -643 180 -84 -39 -132 -78 -199 -162
-63 -79 -111 -107 -184 -108 -62 0 -139 40 -174 90 -120 173 -329 259 -534
219z"/>
</g>
</svg>
